<svg width="556" height="515" viewBox="0 0 556 515" fill="none" xmlns="http://www.w3.org/2000/svg">
<path d="M262.497 515H7.53916C5.53965 515 3.62204 514.206 2.20817 512.792C0.794303 511.378 0 509.46 0 507.461V7.47314C0.0174091 5.4851 0.819389 3.5844 2.23137 2.18478C3.64336 0.785159 5.55104 -7.62181e-05 7.53916 5.54881e-09H262.497C263.488 5.54882e-09 264.468 0.195004 265.383 0.573883C266.297 0.952761 267.128 1.50809 267.828 2.20817C268.529 2.90825 269.084 3.73936 269.463 4.65405C269.842 5.56875 270.037 6.5491 270.037 7.53916V507.461C270.037 508.451 269.842 509.431 269.463 510.346C269.084 511.261 268.529 512.092 267.828 512.792C267.128 513.492 266.297 514.047 265.383 514.426C264.468 514.805 263.488 515 262.497 515ZM7.53916 0.26407C5.62827 0.26756 3.79664 1.0282 2.44543 2.37941C1.09422 3.73062 0.333576 5.56225 0.330086 7.47314V507.461C0.333576 509.372 1.09422 511.203 2.44543 512.555C3.79664 513.906 5.62827 514.666 7.53916 514.67H262.497C264.408 514.666 266.24 513.906 267.591 512.555C268.942 511.203 269.703 509.372 269.707 507.461V7.47314C269.703 5.56225 268.942 3.73062 267.591 2.37941C266.24 1.0282 264.408 0.26756 262.497 0.26407H7.53916Z" fill="#EBEBEB"/>
<path d="M548.087 515H293.129C291.13 515 289.212 514.206 287.798 512.792C286.384 511.378 285.59 509.46 285.59 507.461V7.47314C285.607 5.4851 286.409 3.5844 287.821 2.18478C289.233 0.785159 291.141 -7.62181e-05 293.129 5.54881e-09H548.087C550.087 5.54883e-09 552.004 0.794303 553.418 2.20817C554.832 3.62204 555.626 5.53965 555.626 7.53916V507.461C555.626 508.451 555.431 509.431 555.053 510.346C554.674 511.261 554.118 512.092 553.418 512.792C552.718 513.492 551.887 514.047 550.972 514.426C550.058 514.805 549.077 515 548.087 515ZM293.129 0.26407C291.218 0.26756 289.386 1.0282 288.035 2.37941C286.684 3.73062 285.923 5.56225 285.92 7.47314V507.461C285.923 509.372 286.684 511.203 288.035 512.555C289.386 513.906 291.218 514.666 293.129 514.67H548.087C549.998 514.666 551.83 513.906 553.181 512.555C554.532 511.203 555.293 509.372 555.296 507.461V7.47314C555.293 5.56225 554.532 3.73062 553.181 2.37941C551.83 1.0282 549.998 0.26756 548.087 0.26407H293.129Z" fill="#EBEBEB"/>
<path d="M96.9923 149.529L99.1313 153.846L103.911 154.546L100.452 157.913L101.27 162.666L96.9923 160.422L92.7276 162.666L93.5462 157.913L90.0869 154.546L94.8666 153.846L96.9923 149.529Z" fill="#EBEBEB"/>
<path d="M524.321 353.166L526.46 357.496L531.24 358.196L527.781 361.55L528.599 366.316L524.321 364.072L520.057 366.316L520.875 361.55L517.416 358.196L522.196 357.496L524.321 353.166Z" fill="#F5F5F5"/>
<path d="M439.688 478.717L441.827 483.034L446.593 483.734L443.134 487.101L443.952 491.854L439.688 489.61L435.423 491.854L436.228 487.101L432.782 483.734L437.549 483.034L439.688 478.717Z" fill="#F5F5F5"/>
<path d="M246.047 72.817L246.839 74.4278L248.621 74.6919C248.721 74.7049 248.814 74.7459 248.891 74.8103C248.968 74.8746 249.025 74.9595 249.056 75.0551C249.086 75.1507 249.089 75.253 249.063 75.35C249.038 75.447 248.985 75.5347 248.912 75.6029L247.591 76.8572L247.895 78.6265C247.911 78.725 247.899 78.8258 247.861 78.918C247.823 79.0101 247.76 79.0899 247.679 79.1486C247.599 79.2074 247.503 79.2427 247.404 79.2507C247.305 79.2588 247.205 79.2392 247.116 79.1942L245.532 78.3492L243.947 79.1942C243.858 79.2392 243.759 79.2588 243.659 79.2507C243.56 79.2427 243.465 79.2074 243.384 79.1486C243.303 79.0899 243.241 79.0101 243.203 78.918C243.165 78.8258 243.153 78.725 243.168 78.6265L243.459 76.8572L242.138 75.6029C242.064 75.5339 242.012 75.445 241.987 75.347C241.962 75.249 241.966 75.1459 241.998 75.0499C242.03 74.954 242.089 74.8692 242.167 74.8057C242.246 74.7423 242.341 74.7027 242.442 74.6919L244.211 74.4278L245.003 72.817C245.035 72.703 245.103 72.6026 245.198 72.531C245.292 72.4595 245.407 72.4207 245.525 72.4207C245.643 72.4207 245.758 72.4595 245.853 72.531C245.947 72.6026 246.015 72.703 246.047 72.817Z" fill="#EBEBEB"/>
<path d="M27.9785 458.159L28.7707 459.757L30.54 460.021C30.6405 460.035 30.735 460.076 30.8129 460.141C30.8907 460.206 30.9488 460.292 30.9804 460.388C31.0121 460.485 31.0161 460.588 30.9919 460.686C30.9677 460.785 30.9164 460.874 30.8437 460.945L29.5233 462.186L29.827 463.956C29.8426 464.054 29.8307 464.155 29.7926 464.247C29.7545 464.339 29.6918 464.419 29.6112 464.478C29.5306 464.536 29.4354 464.572 29.336 464.58C29.2367 464.588 29.137 464.568 29.048 464.523L27.4636 463.691L25.8792 464.523C25.7902 464.568 25.6906 464.588 25.5912 464.58C25.4918 464.572 25.3966 464.536 25.316 464.478C25.2355 464.419 25.1727 464.339 25.1346 464.247C25.0965 464.155 25.0846 464.054 25.1002 463.956L25.4039 462.186L24.0835 460.945C24.0111 460.875 23.9596 460.787 23.9347 460.689C23.9099 460.592 23.9127 460.489 23.9429 460.393C23.973 460.297 24.0294 460.211 24.1055 460.146C24.1817 460.08 24.2746 460.037 24.374 460.021L26.1433 459.757L26.9487 458.159C26.984 458.05 27.0528 457.956 27.1453 457.888C27.2378 457.821 27.3492 457.785 27.4636 457.785C27.578 457.785 27.6894 457.821 27.7819 457.888C27.8744 457.956 27.9433 458.05 27.9785 458.159Z" fill="#F5F5F5"/>
<path d="M63.5876 55.8505L64.3799 57.4613L66.1623 57.7122C66.2617 57.728 66.3546 57.7713 66.4308 57.837C66.507 57.9028 66.5633 57.9885 66.5934 58.0845C66.6236 58.1804 66.6264 58.2829 66.6016 58.3804C66.5767 58.4779 66.5252 58.5666 66.4528 58.6364L65.1324 59.9568L65.4361 61.7128C65.4572 61.8125 65.449 61.9162 65.4126 62.0113C65.3761 62.1064 65.3128 62.189 65.2305 62.249C65.1482 62.309 65.0502 62.3439 64.9485 62.3495C64.8467 62.3551 64.7456 62.3312 64.6571 62.2806L63.0727 61.4488L61.4883 62.2806C61.3999 62.3312 61.2987 62.3551 61.1969 62.3495C61.0952 62.3439 60.9973 62.309 60.9149 62.249C60.8326 62.189 60.7694 62.1064 60.7329 62.0113C60.6964 61.9162 60.6882 61.8125 60.7093 61.7128L60.9998 59.9568L59.6794 58.6364C59.6068 58.5657 59.5554 58.476 59.5312 58.3776C59.5071 58.2791 59.511 58.1758 59.5427 58.0795C59.5743 57.9832 59.6324 57.8977 59.7103 57.8327C59.7881 57.7678 59.8827 57.726 59.9831 57.7122L61.7524 57.4613L62.5974 55.8505C62.6398 55.7546 62.7092 55.673 62.7971 55.6157C62.885 55.5585 62.9876 55.528 63.0925 55.528C63.1974 55.528 63.3001 55.5585 63.388 55.6157C63.4759 55.673 63.5452 55.7546 63.5876 55.8505Z" fill="#EBEBEB"/>
<path d="M61.4486 374.08C61.4512 374.428 61.3504 374.768 61.1591 375.059C60.9677 375.349 60.6944 375.577 60.3737 375.712C60.0531 375.846 59.6996 375.883 59.3581 375.817C59.0166 375.751 58.7025 375.584 58.4556 375.339C58.2086 375.094 58.0401 374.781 57.9712 374.44C57.9024 374.099 57.9364 373.746 58.0689 373.424C58.2014 373.102 58.4265 372.827 58.7156 372.634C59.0046 372.44 59.3447 372.337 59.6925 372.337C60.156 372.337 60.6007 372.52 60.9296 372.847C61.2585 373.173 61.4451 373.616 61.4486 374.08Z" fill="#EBEBEB"/>
<path d="M311.706 154.335C311.709 154.683 311.608 155.024 311.417 155.314C311.226 155.605 310.952 155.832 310.632 155.967C310.311 156.102 309.957 156.138 309.616 156.072C309.274 156.006 308.96 155.84 308.713 155.595C308.466 155.349 308.298 155.037 308.229 154.696C308.16 154.355 308.194 154.001 308.327 153.679C308.459 153.358 308.684 153.083 308.973 152.889C309.262 152.695 309.602 152.592 309.95 152.592C310.18 152.59 310.408 152.634 310.621 152.721C310.834 152.808 311.028 152.936 311.191 153.098C311.354 153.26 311.484 153.453 311.572 153.665C311.661 153.877 311.706 154.105 311.706 154.335Z" fill="#EBEBEB"/>
<path d="M220.656 57.3029C220.656 57.6502 220.553 57.9897 220.36 58.2785C220.167 58.5673 219.892 58.7923 219.572 58.9253C219.251 59.0582 218.898 59.0929 218.557 59.0252C218.216 58.9574 217.903 58.7902 217.658 58.5446C217.412 58.299 217.245 57.9861 217.177 57.6455C217.11 57.3048 217.144 56.9517 217.277 56.6309C217.41 56.31 217.635 56.0357 217.924 55.8428C218.213 55.6498 218.552 55.5468 218.9 55.5468C219.364 55.5503 219.809 55.7364 220.138 56.065C220.466 56.3935 220.652 56.8382 220.656 57.3029Z" fill="#F5F5F5"/>
<path d="M223.437 485.284C228.653 484.053 231.884 478.826 230.652 473.61C229.421 468.393 224.195 465.163 218.978 466.394C213.762 467.625 210.531 472.852 211.762 478.068C212.994 483.284 218.22 486.515 223.437 485.284Z" fill="#F0F0F0"/>
<path d="M217.869 470.161C215.881 470.157 213.943 470.786 212.337 471.957C211.516 473.839 211.315 475.934 211.761 477.938C212.208 479.942 213.28 481.753 214.822 483.108C216.364 484.464 218.297 485.295 220.342 485.481C222.387 485.667 224.439 485.199 226.2 484.144C226.98 482.701 227.372 481.081 227.337 479.442C227.303 477.803 226.843 476.2 226.003 474.792C225.163 473.384 223.972 472.218 222.546 471.408C221.12 470.599 219.509 470.174 217.869 470.174V470.161Z" fill="#E6E6E6"/>
<path d="M142.715 307.165H62.3721V270.895L142.715 175.381H181.163V272.955H201.087V307.165H181.163V336.846H142.715V307.165ZM142.715 272.955V222.993L100.253 272.955H142.715Z" fill="#B67B0F"/>
<path d="M214.832 256.82C214.832 226.637 220.263 205.511 231.125 193.444C241.987 181.376 258.54 175.346 280.783 175.355C291.46 175.355 300.232 176.675 307.098 179.316C313.335 181.563 319.046 185.064 323.879 189.601C327.953 193.491 331.404 197.984 334.112 202.924C336.791 208.081 338.809 213.555 340.119 219.217C343.105 231.312 344.594 243.728 344.556 256.186C344.556 284.987 339.684 306.064 329.94 319.418C320.195 332.771 303.414 339.452 279.595 339.46C266.233 339.46 255.437 337.33 247.207 333.07C238.911 328.74 231.922 322.272 226.966 314.334C223.137 308.489 220.157 300.493 218.027 290.344C215.816 279.308 214.745 268.075 214.832 256.82ZM258.588 256.926C258.588 277.171 260.371 290.977 263.936 298.345C267.501 305.712 272.681 309.414 279.476 309.449C281.633 309.473 283.772 309.069 285.771 308.26C287.77 307.451 289.589 306.253 291.121 304.735C294.414 301.593 296.834 296.628 298.383 289.842C299.933 283.055 300.707 272.492 300.707 258.154C300.707 237.081 298.92 222.914 295.347 215.652C291.773 208.39 286.412 204.763 279.265 204.772C271.977 204.772 266.695 208.473 263.421 215.876C260.146 223.279 258.535 236.962 258.588 256.926Z" fill="#B67B0F"/>
<path d="M438.551 307.165H358.208V270.895L438.551 175.381H476.999V272.955H496.989V307.165H476.999V336.846H438.551V307.165ZM438.551 272.955V222.993L396.102 272.955H438.551Z" fill="#B67B0F"/>
<g opacity="0.3">
<path d="M213.116 119.649C213.116 120.138 212.971 120.616 212.699 121.023C212.427 121.429 212.04 121.745 211.589 121.932C211.137 122.118 210.64 122.166 210.16 122.07C209.681 121.974 209.241 121.737 208.896 121.391C208.551 121.044 208.317 120.603 208.224 120.123C208.13 119.643 208.181 119.146 208.369 118.695C208.558 118.245 208.877 117.86 209.285 117.59C209.692 117.32 210.171 117.178 210.66 117.18C210.984 117.18 211.304 117.244 211.603 117.369C211.902 117.493 212.173 117.675 212.401 117.904C212.629 118.134 212.81 118.406 212.933 118.706C213.055 119.005 213.118 119.326 213.116 119.649Z" fill="#B67B0F"/>
<path d="M44.072 214.49C45.0345 214.49 45.8148 213.71 45.8148 212.747C45.8148 211.784 45.0345 211.004 44.072 211.004C43.1094 211.004 42.3291 211.784 42.3291 212.747C42.3291 213.71 43.1094 214.49 44.072 214.49Z" fill="#B67B0F"/>
<path d="M332.012 469.012C333.39 469.012 334.507 467.895 334.507 466.517C334.507 465.139 333.39 464.022 332.012 464.022C330.634 464.022 329.517 465.139 329.517 466.517C329.517 467.895 330.634 469.012 332.012 469.012Z" fill="#B67B0F"/>
<path d="M392.022 367.478C392.985 367.478 393.765 366.698 393.765 365.735C393.765 364.773 392.985 363.992 392.022 363.992C391.06 363.992 390.279 364.773 390.279 365.735C390.279 366.698 391.06 367.478 392.022 367.478Z" fill="#B67B0F"/>
<path d="M507.777 53.6324C507.777 53.9771 507.675 54.314 507.483 54.6007C507.291 54.8873 507.019 55.1107 506.701 55.2426C506.382 55.3745 506.032 55.409 505.694 55.3417C505.356 55.2745 505.045 55.1085 504.801 54.8648C504.558 54.621 504.392 54.3105 504.324 53.9724C504.257 53.6343 504.292 53.2839 504.424 52.9654C504.556 52.647 504.779 52.3748 505.066 52.1832C505.352 51.9917 505.689 51.8895 506.034 51.8895C506.496 51.8895 506.939 52.0731 507.266 52.4C507.593 52.7268 507.777 53.1701 507.777 53.6324Z" fill="#B67B0F"/>
<path d="M175.816 18.4848C175.816 18.8295 175.714 19.1665 175.522 19.4531C175.331 19.7397 175.058 19.9631 174.74 20.095C174.421 20.2269 174.071 20.2614 173.733 20.1942C173.395 20.1269 173.084 19.9609 172.841 19.7172C172.597 19.4734 172.431 19.1629 172.364 18.8248C172.296 18.4867 172.331 18.1363 172.463 17.8178C172.595 17.4994 172.818 17.2272 173.105 17.0357C173.391 16.8442 173.728 16.7419 174.073 16.7419C174.534 16.7454 174.975 16.9301 175.301 17.2562C175.628 17.5823 175.812 18.0236 175.816 18.4848Z" fill="#B67B0F"/>
<path d="M314.385 109.932C315.348 109.932 316.128 109.152 316.128 108.189C316.128 107.226 315.348 106.446 314.385 106.446C313.423 106.446 312.643 107.226 312.643 108.189C312.643 109.152 313.423 109.932 314.385 109.932Z" fill="#B67B0F"/>
</g>
<path d="M134.198 109.945C150.175 109.945 163.127 96.9932 163.127 81.0163C163.127 65.0394 150.175 52.0875 134.198 52.0875C118.221 52.0875 105.27 65.0394 105.27 81.0163C105.27 96.9932 118.221 109.945 134.198 109.945Z" fill="#B67B0F"/>
<path opacity="0.7" d="M134.198 109.945C150.175 109.945 163.127 96.9932 163.127 81.0163C163.127 65.0394 150.175 52.0875 134.198 52.0875C118.221 52.0875 105.27 65.0394 105.27 81.0163C105.27 96.9932 118.221 109.945 134.198 109.945Z" fill="white"/>
<path opacity="0.2" d="M124.23 59.1911C120.29 59.179 116.39 59.9743 112.769 61.5281C108.32 66.4185 105.679 72.685 105.286 79.285C104.893 85.885 106.771 92.4207 110.609 97.8046C114.447 103.189 120.012 107.096 126.379 108.877C132.747 110.659 139.532 110.206 145.606 107.595C149.372 103.445 151.852 98.29 152.745 92.7573C153.638 87.2246 152.905 81.5516 150.636 76.4273C148.367 71.3029 144.659 66.9477 139.962 63.8903C135.265 60.833 129.781 59.205 124.177 59.2042L124.23 59.1911Z" fill="#B67B0F"/>
<path opacity="0.2" d="M121.352 66.8358C121.352 67.3581 121.197 67.8686 120.907 68.3029C120.616 68.7372 120.204 69.0756 119.722 69.2755C119.239 69.4754 118.708 69.5277 118.196 69.4258C117.684 69.3239 117.213 69.0724 116.844 68.7031C116.474 68.3337 116.223 67.8632 116.121 67.351C116.019 66.8387 116.071 66.3078 116.271 65.8253C116.471 65.3427 116.81 64.9303 117.244 64.6402C117.678 64.35 118.189 64.1951 118.711 64.1951C119.411 64.1951 120.083 64.4733 120.578 64.9686C121.073 65.4638 121.352 66.1355 121.352 66.8358Z" fill="#B67B0F"/>
<path opacity="0.2" d="M152.459 64.1951C152.459 64.7173 152.304 65.2279 152.014 65.6622C151.724 66.0964 151.311 66.4349 150.829 66.6347C150.346 66.8346 149.815 66.8869 149.303 66.785C148.791 66.6831 148.32 66.4316 147.951 66.0623C147.582 65.693 147.33 65.2225 147.228 64.7102C147.127 64.198 147.179 63.667 147.379 63.1845C147.579 62.702 147.917 62.2896 148.351 61.9994C148.786 61.7093 149.296 61.5544 149.818 61.5544C150.519 61.5544 151.19 61.8326 151.686 62.3278C152.181 62.823 152.459 63.4947 152.459 64.1951Z" fill="#B67B0F"/>
<path opacity="0.2" d="M147.178 83.0497C147.178 83.9062 146.924 84.7435 146.448 85.4557C145.972 86.1679 145.296 86.7229 144.505 87.0507C143.713 87.3785 142.843 87.4643 142.002 87.2972C141.162 87.1301 140.391 86.7176 139.785 86.1119C139.179 85.5063 138.767 84.7346 138.6 83.8945C138.433 83.0545 138.518 82.1837 138.846 81.3924C139.174 80.601 139.729 79.9247 140.441 79.4488C141.154 78.9729 141.991 78.7189 142.847 78.7189C143.996 78.7189 145.097 79.1752 145.91 79.9874C146.722 80.7995 147.178 81.9011 147.178 83.0497Z" fill="#B67B0F"/>
<path opacity="0.2" d="M133.42 95.3948C133.42 96.5386 133.081 97.6567 132.445 98.6077C131.81 99.5587 130.906 100.3 129.85 100.738C128.793 101.175 127.63 101.29 126.508 101.067C125.387 100.844 124.356 100.293 123.547 99.4841C122.739 98.6753 122.188 97.6448 121.965 96.523C121.741 95.4012 121.856 94.2384 122.294 93.1817C122.731 92.125 123.473 91.2218 124.424 90.5863C125.375 89.9509 126.493 89.6117 127.637 89.6117C129.17 89.6117 130.641 90.221 131.726 91.3055C132.81 92.3901 133.42 93.861 133.42 95.3948Z" fill="#B67B0F"/>
<path d="M477.052 429.965C480.273 416.317 471.821 402.642 458.173 399.421C444.525 396.2 430.85 404.652 427.629 418.3C424.408 431.948 432.86 445.622 446.508 448.844C460.156 452.065 473.831 443.612 477.052 429.965Z" fill="#B67B0F"/>
<path opacity="0.3" d="M477.052 429.965C480.273 416.317 471.821 402.642 458.173 399.421C444.525 396.2 430.85 404.652 427.629 418.3C424.408 431.948 432.86 445.622 446.508 448.844C460.156 452.065 473.831 443.612 477.052 429.965Z" fill="white"/>
<path opacity="0.4" d="M468.378 404.474C462.749 402.775 456.705 403.083 451.279 405.346C445.852 407.609 441.38 411.685 438.625 416.879C435.871 422.073 435.005 428.063 436.177 433.824C437.348 439.586 440.483 444.762 445.047 448.468C447.414 449.187 449.875 449.552 452.349 449.551C457.59 449.549 462.703 447.926 466.986 444.903C471.268 441.88 474.51 437.606 476.266 432.667C478.022 427.728 478.207 422.367 476.794 417.319C475.382 412.271 472.442 407.784 468.378 404.474Z" fill="#B67B0F"/>
<path d="M428.107 431.752C401.001 444.507 421.215 454.343 459.413 440.612C494.785 427.897 508.266 411.868 476.577 416.846C478.281 423.513 433.983 440.77 428.107 431.752Z" fill="#B67B0F"/>
<path opacity="0.2" d="M468.075 175.381C432.571 199.372 386.61 231.06 373.922 307.165H371.215C383.56 231.905 427.844 199.464 463.362 175.381H468.075Z" fill="#252422"/>
<path d="M284.415 413.624C261.97 413.624 239.775 403.497 228.961 386.966C222.293 376.747 214.543 355.344 237.622 326.785L239.669 328.449C223.349 348.65 220.339 368.917 231.179 385.527C244.383 405.728 275.529 415.895 302.121 408.66C329.36 401.253 345.891 377.566 347.488 343.672C352.941 227.733 414.535 192.018 459.506 165.941C487.458 149.74 507.646 138.042 503.209 113.338C502.589 109.919 501.229 107.555 499.024 106.103C493.28 102.313 482.058 104.941 469.065 107.965C443.57 113.906 408.66 122.039 387.864 86.6674L390.148 85.347C409.954 119.055 442.394 111.49 468.471 105.416C482.058 102.261 493.782 99.5275 500.476 103.924C503.315 105.786 505.058 108.73 505.758 112.903C510.524 139.415 488.593 152.143 460.8 168.251C416.344 194.025 355.476 229.317 350.089 343.857C348.426 378.978 331.182 403.55 302.768 411.274C296.782 412.868 290.61 413.658 284.415 413.624Z" fill="#B67B0F"/>
<path opacity="0.2" d="M284.415 413.624C261.97 413.624 239.775 403.497 228.961 386.966C222.293 376.747 214.543 355.344 237.622 326.785L239.669 328.449C223.349 348.65 220.339 368.917 231.179 385.527C244.383 405.728 275.529 415.895 302.121 408.66C329.36 401.253 345.891 377.566 347.488 343.672C352.941 227.733 414.535 192.018 459.506 165.941C487.458 149.74 507.646 138.042 503.209 113.338C502.589 109.919 501.229 107.555 499.024 106.103C493.28 102.313 482.058 104.941 469.065 107.965C443.57 113.906 408.66 122.039 387.864 86.6674L390.148 85.347C409.954 119.055 442.394 111.49 468.471 105.416C482.058 102.261 493.782 99.5275 500.476 103.924C503.315 105.786 505.058 108.73 505.758 112.903C510.524 139.415 488.593 152.143 460.8 168.251C416.344 194.025 355.476 229.317 350.089 343.857C348.426 378.978 331.182 403.55 302.768 411.274C296.782 412.868 290.61 413.658 284.415 413.624Z" fill="white"/>
<path d="M360.679 55.4545C366.763 55.4896 372.807 56.4376 378.609 58.2668C378.609 58.2668 393.133 83.0496 394.849 88.7271C394.242 94.3254 384.801 103.502 384.801 103.502L360.679 55.4545Z" fill="#B67B0F"/>
<path opacity="0.3" d="M360.679 55.4545C366.763 55.4896 372.807 56.4376 378.609 58.2668C378.609 58.2668 393.133 83.0496 394.849 88.7271C394.242 94.3254 384.801 103.502 384.801 103.502L360.679 55.4545Z" fill="white"/>
<path d="M403.695 175.777C398.102 168.938 393.002 161.711 388.432 154.15C387.323 152.24 386.271 150.295 385.276 148.314C384.709 147.192 384.167 146.07 383.639 144.934C382.946 143.829 382.409 142.634 382.042 141.382C380.457 124.654 386.187 112.335 380.721 98.907L358.962 107.41C358.962 107.41 360.81 131.335 365.036 145.7C367.676 154.586 373.591 162.27 379.308 169.387C381.091 171.605 382.807 173.889 384.59 176.121C386.372 178.352 388.168 180.161 389.871 182.26C392.446 185.442 393.291 188.492 391.35 192.242L391.02 192.836C390.465 193.813 393.053 194.922 394.69 192.836C397.331 189.43 396.961 189.641 399.259 186.736C400.658 184.98 402.256 183.066 403.642 181.455C404.311 180.663 404.682 179.662 404.692 178.626C404.702 177.589 404.349 176.582 403.695 175.777Z" fill="#B67B0F"/>
<path opacity="0.7" d="M403.695 175.777C398.102 168.938 393.002 161.711 388.432 154.15C387.323 152.24 386.271 150.295 385.276 148.314C384.709 147.192 384.167 146.07 383.639 144.934C382.946 143.829 382.409 142.634 382.042 141.382C380.457 124.654 386.187 112.335 380.721 98.907L358.962 107.41C358.962 107.41 360.81 131.335 365.036 145.7C367.676 154.586 373.591 162.27 379.308 169.387C381.091 171.605 382.807 173.889 384.59 176.121C386.372 178.352 388.168 180.161 389.871 182.26C392.446 185.442 393.291 188.492 391.35 192.242L391.02 192.836C390.465 193.813 393.053 194.922 394.69 192.836C397.331 189.43 396.961 189.641 399.259 186.736C400.658 184.98 402.256 183.066 403.642 181.455C404.311 180.663 404.682 179.662 404.692 178.626C404.702 177.589 404.349 176.582 403.695 175.777Z" fill="white"/>
<path opacity="0.3" d="M398.374 168.898C394.921 172.6 391.088 175.928 386.939 178.827C387.507 179.461 388.062 180.148 388.629 180.755C392.783 177.949 396.556 174.616 399.852 170.839L398.374 168.898Z" fill="#B67B0F"/>
<path opacity="0.3" d="M403.695 175.777L403.537 175.593C402.521 176.758 401.93 178.233 401.86 179.778C401.775 180.838 401.947 181.902 402.362 182.881L403.616 181.389C404.272 180.605 404.637 179.619 404.652 178.597C404.666 177.575 404.329 176.58 403.695 175.777Z" fill="#B67B0F"/>
<path d="M355.503 71.2986C353.144 74.8307 350.314 78.0245 347.092 80.7919C345.305 82.3319 343.347 83.661 341.256 84.7529C340.158 85.3158 339.019 85.7968 337.85 86.1921L336.952 86.4825L336.662 86.5618L336.041 86.7334C335.659 86.8241 335.27 86.8859 334.879 86.9183C333.765 87.0034 332.645 86.9008 331.565 86.6146C330.203 86.228 328.898 85.6643 327.683 84.9377C326.706 84.3663 325.758 83.7449 324.844 83.0761C323.194 81.8482 321.615 80.5256 320.118 79.115C317.229 76.3785 314.579 73.4014 312.196 70.2159C311.737 69.5953 311.509 68.834 311.551 68.0632C311.593 67.2925 311.903 66.5608 312.428 65.9942C312.952 65.4277 313.657 65.0619 314.423 64.9601C315.188 64.8582 315.964 65.0266 316.619 65.4363H316.724C319.84 67.4168 322.983 69.5029 326.046 71.3646C327.604 72.2756 329.109 73.1999 330.601 73.9129C331.282 74.2695 331.983 74.5869 332.7 74.8635C333.147 75.0608 333.626 75.177 334.113 75.2068C334.192 75.2068 334.113 75.1144 333.625 75.1276C333.471 75.1184 333.317 75.1184 333.163 75.1276L332.872 75.1936L333.308 74.9691C333.895 74.6535 334.463 74.3053 335.011 73.9261C336.192 73.0931 337.297 72.1563 338.312 71.127C340.619 68.7096 342.779 66.1568 344.782 63.4822C345.879 62.2546 347.395 61.4813 349.033 61.3141C350.671 61.1468 352.312 61.5976 353.635 62.5781C354.958 63.5585 355.866 64.9978 356.183 66.6136C356.499 68.2294 356.2 69.905 355.344 71.3118L355.503 71.2986Z" fill="#B67B0F"/>
<path opacity="0.7" d="M355.503 71.2986C353.144 74.8307 350.314 78.0245 347.092 80.7919C345.305 82.3319 343.347 83.661 341.256 84.7529C340.158 85.3158 339.019 85.7968 337.85 86.1921L336.952 86.4825L336.662 86.5618L336.041 86.7334C335.659 86.8241 335.27 86.8859 334.879 86.9183C333.765 87.0034 332.645 86.9008 331.565 86.6146C330.203 86.228 328.898 85.6643 327.683 84.9377C326.706 84.3663 325.758 83.7449 324.844 83.0761C323.194 81.8482 321.615 80.5256 320.118 79.115C317.229 76.3785 314.579 73.4014 312.196 70.2159C311.737 69.5953 311.509 68.834 311.551 68.0632C311.593 67.2925 311.903 66.5608 312.428 65.9942C312.952 65.4277 313.657 65.0619 314.423 64.9601C315.188 64.8582 315.964 65.0266 316.619 65.4363H316.724C319.84 67.4168 322.983 69.5029 326.046 71.3646C327.604 72.2756 329.109 73.1999 330.601 73.9129C331.282 74.2695 331.983 74.5869 332.7 74.8635C333.147 75.0608 333.626 75.177 334.113 75.2068C334.192 75.2068 334.113 75.1144 333.625 75.1276C333.471 75.1184 333.317 75.1184 333.163 75.1276L332.872 75.1936L333.308 74.9691C333.895 74.6535 334.463 74.3053 335.011 73.9261C336.192 73.0931 337.297 72.1563 338.312 71.127C340.619 68.7096 342.779 66.1568 344.782 63.4822C345.879 62.2546 347.395 61.4813 349.033 61.3141C350.671 61.1468 352.312 61.5976 353.635 62.5781C354.958 63.5585 355.866 64.9978 356.183 66.6136C356.499 68.2294 356.2 69.905 355.344 71.3118L355.503 71.2986Z" fill="white"/>
<path d="M307.244 62.6107L308.788 65.2514C308.788 65.2514 309.964 68.7107 312.327 69.3445L318.744 67.2715L318.414 66.7302C317.595 65.4891 317.688 63.0728 317.965 61.0659C318.242 59.059 317.212 58.993 316.446 59.4947C315.904 60.1189 315.523 60.8671 315.337 61.6733C315.022 61.2372 314.674 60.8267 314.294 60.4453L312.34 58.4912C311.93 58.0905 311.384 57.8597 310.811 57.845C310.238 57.8303 309.68 58.0328 309.251 58.412L307.666 59.8248C307.29 60.1724 307.044 60.6375 306.967 61.1437C306.89 61.65 306.988 62.1672 307.244 62.6107Z" fill="#B67B0F"/>
<path opacity="0.7" d="M307.244 62.6107L308.788 65.2514C308.788 65.2514 309.964 68.7107 312.327 69.3445L318.744 67.2715L318.414 66.7302C317.595 65.4891 317.688 63.0728 317.965 61.0659C318.242 59.059 317.212 58.993 316.446 59.4947C315.904 60.1189 315.523 60.8671 315.337 61.6733C315.022 61.2372 314.674 60.8267 314.294 60.4453L312.34 58.4912C311.93 58.0905 311.384 57.8597 310.811 57.845C310.238 57.8303 309.68 58.0328 309.251 58.412L307.666 59.8248C307.29 60.1724 307.044 60.6375 306.967 61.1437C306.89 61.65 306.988 62.1672 307.244 62.6107Z" fill="white"/>
<path d="M367.161 53.1042C360.044 54.9908 353.226 57.8664 346.907 61.6469C345.922 62.2638 345.148 63.1674 344.69 64.2364C344.232 65.3054 344.112 66.4888 344.346 67.628C346.894 80.0921 352.69 96.7812 358.949 107.41L388.142 95.3288C388.34 90.1795 381.249 73.5168 374.027 57.4086C372.733 54.517 370.238 52.3648 367.161 53.1042Z" fill="#B67B0F"/>
<path opacity="0.8" d="M367.161 53.1042C360.044 54.9908 353.226 57.8664 346.907 61.6469C345.922 62.2638 345.148 63.1674 344.69 64.2364C344.232 65.3054 344.112 66.4888 344.346 67.628C346.894 80.0921 352.69 96.7812 358.949 107.41L388.142 95.3288C388.34 90.1795 381.249 73.5168 374.027 57.4086C372.733 54.517 370.238 52.3648 367.161 53.1042Z" fill="white"/>
<path opacity="0.3" d="M378.556 67.6148L372.76 65.6739C374.08 69.0672 378.741 73.3583 382.002 75.8801C380.946 73.2395 379.771 70.4667 378.556 67.6148Z" fill="#B67B0F"/>
<path d="M365.247 40.0328C362.831 35.4381 357.615 33.1275 351.357 33.6424C346.075 34.0913 341.401 39.4783 341.956 42.3831C342.511 45.2878 346.947 46.5289 347.792 47.5324L344.135 50.1731C343.701 50.4858 343.336 50.883 343.06 51.3406C342.784 51.7983 342.604 52.307 342.53 52.8362C342.456 53.3654 342.49 53.9041 342.629 54.4198C342.769 54.9356 343.012 55.4178 343.342 55.8374C344.887 57.7915 346.92 59.7984 348.096 61.2772C358.209 61.0131 365.696 57.1577 368.402 53.4475C367.386 48.7471 367.597 44.6012 365.247 40.0328Z" fill="#B67B0F"/>
<path opacity="0.8" d="M365.247 40.0328C362.831 35.4381 357.615 33.1275 351.357 33.6424C346.075 34.0913 341.401 39.4783 341.956 42.3831C342.511 45.2878 346.947 46.5289 347.792 47.5324L344.135 50.1731C343.701 50.4858 343.336 50.883 343.06 51.3406C342.784 51.7983 342.604 52.307 342.53 52.8362C342.456 53.3654 342.49 53.9041 342.629 54.4198C342.769 54.9356 343.012 55.4178 343.342 55.8374C344.887 57.7915 346.92 59.7984 348.096 61.2772C358.209 61.0131 365.696 57.1577 368.402 53.4475C367.386 48.7471 367.597 44.6012 365.247 40.0328Z" fill="white"/>
<path d="M360.283 42.8848C361.001 44.7262 361.157 46.739 360.731 48.669C360.305 50.599 359.317 52.3594 357.891 53.7278C356.465 55.0961 354.665 56.011 352.719 56.3567C350.773 56.7024 348.768 56.4634 346.958 55.67C345.148 54.8765 343.614 53.5643 342.549 51.899C341.485 50.2338 340.938 48.2903 340.978 46.3143C341.017 44.3384 341.642 42.4185 342.773 40.7975C343.904 39.1765 345.49 37.9272 347.33 37.2073C349.801 36.2448 352.552 36.3021 354.981 37.3666C357.409 38.431 359.316 40.4157 360.283 42.8848Z" fill="#263238"/>
<path d="M446.013 161.874C445.867 157.53 445.669 157.913 445.551 154.256C445.471 152.011 445.458 149.516 445.445 147.364C445.44 146.342 445.083 145.352 444.434 144.563C443.784 143.774 442.882 143.234 441.88 143.033C440.137 142.676 438.381 142.346 436.599 141.977C434.314 141.488 432.057 140.96 429.825 140.313C428.082 139.811 426.366 139.257 424.663 138.636C422.959 138.016 421.045 137.316 419.276 136.497C417.19 135.613 415.13 134.662 413.096 133.672C410.812 132.589 408.554 131.453 406.297 130.305C397.609 115.926 397.424 106.446 388.102 95.3289L368.086 104.386C368.086 104.386 382.795 130.476 392.803 141.541C398.573 147.905 407.617 150.783 415.684 152.869C421.507 154.361 427.409 155.51 433.311 156.606C435.608 157.029 438.104 157.187 440.084 158.56C441.55 159.684 442.554 161.303 442.91 163.115C442.998 163.485 443.077 163.855 443.147 164.224C443.398 165.333 446.105 164.488 446.013 161.874Z" fill="#B67B0F"/>
<path opacity="0.8" d="M446.013 161.874C445.867 157.53 445.669 157.913 445.551 154.256C445.471 152.011 445.458 149.516 445.445 147.364C445.44 146.342 445.083 145.352 444.434 144.563C443.784 143.774 442.882 143.234 441.88 143.033C440.137 142.676 438.381 142.346 436.599 141.977C434.314 141.488 432.057 140.96 429.825 140.313C428.082 139.811 426.366 139.257 424.663 138.636C422.959 138.016 421.045 137.316 419.276 136.497C417.19 135.613 415.13 134.662 413.096 133.672C410.812 132.589 408.554 131.453 406.297 130.305C397.609 115.926 397.424 106.446 388.102 95.3289L368.086 104.386C368.086 104.386 382.795 130.476 392.803 141.541C398.573 147.905 407.617 150.783 415.684 152.869C421.507 154.361 427.409 155.51 433.311 156.606C435.608 157.029 438.104 157.187 440.084 158.56C441.55 159.684 442.554 161.303 442.91 163.115C442.998 163.485 443.077 163.855 443.147 164.224C443.398 165.333 446.105 164.488 446.013 161.874Z" fill="white"/>
<path opacity="0.3" d="M435.859 141.805C435.067 141.633 434.275 141.462 433.469 141.264C433.535 145.832 431.396 153.701 430.617 156.091L433.126 156.566C434.77 151.81 435.691 146.834 435.859 141.805Z" fill="#B67B0F"/>
<path opacity="0.3" d="M445.498 147.364C445.494 146.343 445.139 145.356 444.492 144.567C443.845 143.778 442.946 143.236 441.946 143.033L440.626 142.782C440.838 144.283 441.606 145.649 442.778 146.611C443.532 147.308 444.435 147.823 445.419 148.116C445.498 147.878 445.498 147.614 445.498 147.364Z" fill="#B67B0F"/>
<path d="M358.421 42.964C358.95 44.9709 356.705 47.0703 354.923 45.3406C353.259 43.5569 351.438 41.9263 349.483 40.4686C347.647 39.3199 350.09 37.3129 352.982 38.0919C354.216 38.4019 355.356 39.0074 356.303 39.8562C357.251 40.705 357.978 41.7716 358.421 42.964Z" fill="white"/>
<path d="M358.565 106.763C357.641 107.106 359.331 108.691 359.331 108.691C359.331 108.691 377.816 102.366 389.039 95.857C389.066 95.4629 388.999 95.068 388.843 94.7052C388.686 94.3423 388.446 94.022 388.141 93.7708C378.536 98.6568 368.662 102.995 358.565 106.763Z" fill="#B67B0F"/>
<path opacity="0.5" d="M358.565 106.763C357.641 107.106 359.331 108.691 359.331 108.691C359.331 108.691 377.816 102.366 389.039 95.857C389.066 95.4629 388.999 95.068 388.843 94.7052C388.686 94.3423 388.446 94.022 388.141 93.7708C378.536 98.6568 368.662 102.995 358.565 106.763Z" fill="white"/>
<path d="M372.165 52.2328C375.81 54.0813 379.229 56.0222 382.728 58.1743C384.431 59.257 386.121 60.3529 387.798 61.5412C389.475 62.7295 391.139 63.9442 392.816 65.3174L393.436 65.8323L394.215 66.5453C394.679 66.9606 395.12 67.4014 395.536 67.8657C395.958 68.3278 396.315 68.7767 396.658 69.186C397.001 69.5953 397.371 70.0838 397.674 70.5063C398.905 72.2038 400.042 73.9668 401.081 75.7877C403.127 79.3188 404.893 83.0051 406.362 86.8126C406.634 87.532 406.648 88.3232 406.402 89.0518C406.156 89.7803 405.666 90.4013 405.014 90.8089C404.362 91.2166 403.589 91.3859 402.826 91.288C402.063 91.1901 401.358 90.831 400.83 90.2719L400.764 90.1927C398.123 87.3803 395.575 84.4228 393.014 81.6632C390.452 78.9037 387.851 76.1046 385.699 74.8767C382.702 73.015 379.361 71.1533 376.047 69.3312L366.065 63.7858C364.518 62.9664 363.359 61.5657 362.844 59.8918C362.329 58.2179 362.5 56.4081 363.319 54.8603C364.139 53.3125 365.539 52.1536 367.213 51.6386C368.887 51.1235 370.697 51.2945 372.245 52.114L372.165 52.2328Z" fill="#B67B0F"/>
<path opacity="0.8" d="M372.165 52.2328C375.81 54.0813 379.229 56.0222 382.728 58.1743C384.431 59.257 386.121 60.3529 387.798 61.5412C389.475 62.7295 391.139 63.9442 392.816 65.3174L393.436 65.8323L394.215 66.5453C394.679 66.9606 395.12 67.4014 395.536 67.8657C395.958 68.3278 396.315 68.7767 396.658 69.186C397.001 69.5953 397.371 70.0838 397.674 70.5063C398.905 72.2038 400.042 73.9668 401.081 75.7877C403.127 79.3188 404.893 83.0051 406.362 86.8126C406.634 87.532 406.648 88.3232 406.402 89.0518C406.156 89.7803 405.666 90.4013 405.014 90.8089C404.362 91.2166 403.589 91.3859 402.826 91.288C402.063 91.1901 401.358 90.831 400.83 90.2719L400.764 90.1927C398.123 87.3803 395.575 84.4228 393.014 81.6632C390.452 78.9037 387.851 76.1046 385.699 74.8767C382.702 73.015 379.361 71.1533 376.047 69.3312L366.065 63.7858C364.518 62.9664 363.359 61.5657 362.844 59.8918C362.329 58.2179 362.5 56.4081 363.319 54.8603C364.139 53.3125 365.539 52.1536 367.213 51.6386C368.887 51.1235 370.697 51.2945 372.245 52.114L372.165 52.2328Z" fill="white"/>
<path d="M409.491 93.4011L408.369 90.5888C408.369 90.5888 407.749 86.9975 405.517 85.994L398.915 87.0371L399.14 87.618C399.747 88.9384 399.285 91.3546 398.691 93.2823C398.097 95.21 399.1 95.4609 399.945 95.078C400.421 94.8667 400.883 94.0085 401.384 93.0975C401.631 93.5564 401.909 93.9976 402.216 94.4178L403.84 96.6492C404.18 97.1116 404.681 97.4285 405.245 97.5363C405.808 97.644 406.391 97.5347 406.877 97.2301L408.673 96.0814C409.093 95.7938 409.403 95.3718 409.552 94.8848C409.701 94.3977 409.679 93.8745 409.491 93.4011Z" fill="#B67B0F"/>
<path opacity="0.8" d="M409.491 93.4011L408.369 90.5888C408.369 90.5888 407.749 86.9975 405.517 85.994L398.915 87.0371L399.14 87.618C399.747 88.9384 399.285 91.3546 398.691 93.2823C398.097 95.21 399.1 95.4609 399.945 95.078C400.421 94.8667 400.883 94.0085 401.384 93.0975C401.631 93.5564 401.909 93.9976 402.216 94.4178L403.84 96.6492C404.18 97.1116 404.681 97.4285 405.245 97.5363C405.808 97.644 406.391 97.5347 406.877 97.2301L408.673 96.0814C409.093 95.7938 409.403 95.3718 409.552 94.8848C409.701 94.3977 409.679 93.8745 409.491 93.4011Z" fill="white"/>
<path opacity="0.3" d="M366.594 67.4167L364.983 67.5488L355.094 91.4206C355.634 91.4595 356.178 91.415 356.705 91.2886C356.705 91.2886 369.591 86.4825 373.486 84.6868C370.872 79.2866 366.594 67.4167 366.594 67.4167Z" fill="#B67B0F"/>
<path d="M348.545 73.6752C349.747 79.9154 351.978 85.9124 355.147 91.4206C359.979 89.757 368.033 86.6146 371.941 84.8189C369.315 79.1876 366.983 73.423 364.957 67.5488C360.824 67.8261 351.753 71.2986 348.545 73.6752Z" fill="white"/>
<path opacity="0.3" d="M358.355 78.8378C358.162 79.4834 357.782 80.0573 357.262 80.4869C356.743 80.9164 356.108 81.1823 355.438 81.2509C354.767 81.3194 354.092 81.1876 353.496 80.872C352.901 80.5565 352.412 80.0714 352.092 79.4782C351.773 78.8849 351.636 78.2102 351.7 77.5393C351.764 76.8684 352.025 76.2316 352.451 75.7093C352.877 75.187 353.448 74.8028 354.092 74.6052C354.737 74.4077 355.425 74.4057 356.071 74.5994C356.935 74.859 357.661 75.4512 358.09 76.2459C358.518 77.0406 358.613 77.9728 358.355 78.8378Z" fill="#B67B0F"/>
<path opacity="0.6" d="M360.876 74.2957C360.825 74.5161 360.708 74.7158 360.541 74.8686C360.374 75.0214 360.165 75.1201 359.941 75.1518C359.717 75.1835 359.488 75.1467 359.285 75.0463C359.082 74.9458 358.915 74.7864 358.804 74.5889C358.694 74.3915 358.645 74.1652 358.666 73.9398C358.686 73.7144 358.774 73.5004 358.918 73.3259C359.062 73.1514 359.256 73.0245 359.473 72.962C359.691 72.8994 359.922 72.9041 360.137 72.9754C360.404 73.061 360.63 73.2448 360.767 73.4899C360.904 73.7349 360.943 74.0229 360.876 74.2957Z" fill="#B67B0F"/>
<path opacity="0.6" d="M363.835 73.1471C363.804 73.3002 363.741 73.4453 363.651 73.5728C363.56 73.7004 363.445 73.8077 363.31 73.8878C363.176 73.968 363.027 74.0193 362.872 74.0384C362.717 74.0575 362.559 74.044 362.41 73.9987C362.26 73.9535 362.122 73.8775 362.003 73.7756C361.885 73.6738 361.789 73.5483 361.721 73.4072C361.654 73.2662 361.617 73.1126 361.613 72.9564C361.608 72.8002 361.637 72.6448 361.696 72.5001C361.738 72.3604 361.807 72.2304 361.9 72.1176C361.993 72.0047 362.106 71.9113 362.235 71.8426C362.364 71.7739 362.505 71.7313 362.65 71.7172C362.796 71.7032 362.942 71.718 363.082 71.7607C363.365 71.8463 363.602 72.0399 363.743 72.2994C363.884 72.5589 363.917 72.8635 363.835 73.1471Z" fill="#B67B0F"/>
<path opacity="0.5" d="M367.98 83.4326L355.767 88.2518L355.041 85.8488L367.241 81.0295L367.98 83.4326Z" fill="#B67B0F"/>
<path opacity="0.2" d="M300.603 266.934C300.574 274.622 299.832 282.291 298.384 289.842C296.826 296.628 294.406 301.593 291.122 304.735C289.593 306.253 287.777 307.452 285.78 308.261C283.783 309.07 281.645 309.474 279.49 309.449C272.704 309.449 267.524 305.748 263.95 298.345C263.322 297.015 262.788 295.643 262.352 294.239C254.805 300.721 247.777 307.784 241.332 315.364L234.321 323.629C238.094 327.454 242.448 330.658 247.221 333.123C255.442 337.374 266.234 339.504 279.596 339.513C281.946 339.513 284.217 339.447 286.422 339.315C294.506 327.354 301.195 314.507 306.359 301.025L325.966 249.901L300.603 266.934Z" fill="#252422"/>
<path d="M123.848 336.688L146.954 359.794L211.65 298.833C189.35 290.317 145.99 314.493 123.848 336.688Z" fill="#263238"/>
<path d="M204.428 417.229C197.048 409.835 181.322 394.123 181.322 394.123L242.283 329.426C250.746 351.673 226.57 395.073 204.428 417.229Z" fill="#263238"/>
<path d="M292.865 271.595L318.07 222.993L269.469 248.225C253.858 256.321 239.443 266.541 226.637 278.592L143.785 356.585L184.491 397.291L262.484 314.44C274.542 301.63 284.766 287.211 292.865 271.595Z" fill="#B67B0F"/>
<path opacity="0.6" d="M292.865 271.595L318.07 222.993L269.469 248.225C253.858 256.321 239.443 266.541 226.637 278.592L143.785 356.585L184.491 397.291L262.484 314.44C274.542 301.63 284.766 287.211 292.865 271.595Z" fill="white"/>
<path d="M241.108 316.988C250.514 316.988 258.14 309.362 258.14 299.956C258.14 290.549 250.514 282.923 241.108 282.923C231.701 282.923 224.075 290.549 224.075 299.956C224.075 309.362 231.701 316.988 241.108 316.988Z" fill="white"/>
<path d="M241.108 310.901C247.153 310.901 252.053 306.001 252.053 299.956C252.053 293.911 247.153 289.01 241.108 289.01C235.063 289.01 230.162 293.911 230.162 299.956C230.162 306.001 235.063 310.901 241.108 310.901Z" fill="#B67B0F"/>
<path opacity="0.3" d="M198.263 382.662L158.401 342.801L191.04 312.09L228.974 350.036L198.263 382.662Z" fill="#B67B0F"/>
<path d="M132.866 373.155C103.026 375.572 93.1369 394.677 89.7568 420.067C88.0404 433.02 87.2746 446.131 76.4082 453.71C75.7544 454.154 75.2623 454.798 75.0053 455.545C74.7483 456.293 74.7405 457.104 74.9828 457.856C75.2252 458.608 75.7047 459.262 76.3496 459.719C76.9946 460.176 77.7702 460.411 78.5603 460.391C118.62 459.136 137.302 439.529 139.653 431.343C139.036 435.622 137.933 439.817 136.365 443.847C136.077 444.558 136.02 445.342 136.204 446.086C136.387 446.831 136.801 447.5 137.386 447.996C137.971 448.492 138.698 448.79 139.463 448.849C140.228 448.908 140.992 448.723 141.646 448.323C152.882 441.285 166.984 428.319 167.921 407.286C159.656 395.575 132.866 373.155 132.866 373.155Z" fill="#B67B0F"/>
<path opacity="0.2" d="M132.866 373.155C103.026 375.572 93.1369 394.677 89.7568 420.067C88.0404 433.02 87.2746 446.131 76.4082 453.71C75.7544 454.154 75.2623 454.798 75.0053 455.545C74.7483 456.293 74.7405 457.104 74.9828 457.856C75.2252 458.608 75.7047 459.262 76.3496 459.719C76.9946 460.176 77.7702 460.411 78.5603 460.391C118.62 459.136 137.302 439.529 139.653 431.343C139.036 435.622 137.933 439.817 136.365 443.847C136.077 444.558 136.02 445.342 136.204 446.086C136.387 446.831 136.801 447.5 137.386 447.996C137.971 448.492 138.698 448.79 139.463 448.849C140.228 448.908 140.992 448.723 141.646 448.323C152.882 441.285 166.984 428.319 167.921 407.286C159.656 395.575 132.866 373.155 132.866 373.155Z" fill="white"/>
<path d="M172.556 416.304L124.76 368.508L150.216 363.002L178.062 390.848L172.556 416.304Z" fill="#B67B0F"/>
</svg>
