<svg width="18" height="19" viewBox="0 0 18 19" fill="none" xmlns="http://www.w3.org/2000/svg">
<path fill-rule="evenodd" clip-rule="evenodd" d="M17.7071 2.20711C18.0976 1.81658 18.0976 1.18342 17.7071 0.79289C17.3166 0.40237 16.6834 0.40237 16.2929 0.79289L10.348 6.73779L6.07342 0.90865C5.88504 0.65177 5.58555 0.5 5.267 0.5H1C0.62317 0.5 0.27833 0.71184 0.108 1.04798C-0.0623399 1.38412 -0.02925 1.78747 0.19359 2.09135L6.45538 10.6304L0.29289 16.7929C-0.0976299 17.1834 -0.0976299 17.8166 0.29289 18.2071C0.68342 18.5976 1.31658 18.5976 1.70711 18.2071L7.652 12.2622L11.9266 18.0914C12.115 18.3482 12.4145 18.5 12.733 18.5H17C17.3768 18.5 17.7217 18.2882 17.892 17.952C18.0623 17.6159 18.0293 17.2125 17.8064 16.9086L11.5446 8.3696L17.7071 2.20711ZM9.3703 8.7865C9.4012 8.838 9.4371 8.8872 9.4781 8.9336L15.0266 16.5H13.2398L2.97338 2.5H4.76026L9.3703 8.7865Z" fill="#FBFBFB"/>
</svg>
