<svg width="24" height="25" viewBox="0 0 24 25" fill="none" xmlns="http://www.w3.org/2000/svg">
<path d="M2.50001 17.5C1.80143 14.2033 1.80143 10.7967 2.50001 7.5C2.5918 7.16521 2.76914 6.86007 3.01461 6.61461C3.26008 6.36914 3.56522 6.19179 3.90001 6.1C9.26346 5.21146 14.7366 5.21146 20.1 6.1C20.4348 6.19179 20.7399 6.36914 20.9854 6.61461C21.2309 6.86007 21.4082 7.16521 21.5 7.5C22.1986 10.7967 22.1986 14.2033 21.5 17.5C21.4082 17.8348 21.2309 18.1399 20.9854 18.3854C20.7399 18.6309 20.4348 18.8082 20.1 18.9C14.7366 19.7887 9.26344 19.7887 3.90001 18.9C3.56522 18.8082 3.26008 18.6309 3.01461 18.3854C2.76914 18.1399 2.5918 17.8348 2.50001 17.5Z" stroke="#FBFBFB" stroke-width="2" stroke-linecap="round" stroke-linejoin="round"/>
<path d="M10 15.5L15 12.5L10 9.5V15.5Z" stroke="#FBFBFB" stroke-width="2" stroke-linecap="round" stroke-linejoin="round"/>
</svg>
