<svg width="49" height="55" viewBox="0 0 49 55" fill="none" xmlns="http://www.w3.org/2000/svg">
<path d="M0 16.7253C0 7.99561 7.07679 0.918823 15.8065 0.918823H33.1935C41.9232 0.918823 49 7.99561 49 16.7253H0Z" fill="#FBFBFB"/>
<ellipse cx="5.92743" cy="7.86404" rx="1.18548" ry="0.718475" fill="#1F1B1B"/>
<ellipse cx="18.5726" cy="9.78" rx="1.18548" ry="0.718475" fill="#1F1B1B"/>
<ellipse cx="12.25" cy="5.94815" rx="1.18548" ry="0.718475" fill="#1F1B1B"/>
<ellipse cx="16.2016" cy="2.59525" rx="1.18548" ry="0.718475" fill="#1F1B1B"/>
<ellipse cx="21.7339" cy="5.94815" rx="1.18548" ry="0.718475" fill="#1F1B1B"/>
<ellipse cx="27.2661" cy="9.30099" rx="1.18548" ry="0.718475" fill="#1F1B1B"/>
<ellipse cx="23.3145" cy="13.1329" rx="1.18548" ry="0.718475" fill="#1F1B1B"/>
<ellipse cx="36.75" cy="12.1749" rx="1.18548" ry="0.718475" fill="#1F1B1B"/>
<ellipse cx="45.4435" cy="12.1749" rx="1.18548" ry="0.718475" fill="#1F1B1B"/>
<ellipse cx="41.4919" cy="8.82199" rx="1.18548" ry="0.718475" fill="#1F1B1B"/>
<ellipse cx="37.5403" cy="5.46915" rx="1.18548" ry="0.718475" fill="#1F1B1B"/>
<ellipse cx="28.0565" cy="2.1163" rx="1.18548" ry="0.718475" fill="#1F1B1B"/>
<ellipse cx="28.0565" cy="5.46915" rx="1.18548" ry="0.718475" fill="#1F1B1B"/>
<ellipse cx="34.379" cy="8.82199" rx="1.18548" ry="0.718475" fill="#1F1B1B"/>
<ellipse cx="9.87903" cy="11.696" rx="1.18548" ry="0.718475" fill="#1F1B1B"/>
<ellipse cx="1.18548" cy="14.0909" rx="1.18548" ry="0.718475" fill="#1F1B1B"/>
<ellipse cx="14.621" cy="14.5699" rx="1.18548" ry="0.718475" fill="#1F1B1B"/>
<ellipse cx="28.0565" cy="15.0489" rx="1.18548" ry="0.718475" fill="#1F1B1B"/>
<ellipse cx="41.4919" cy="15.5278" rx="1.18548" ry="0.718475" fill="#1F1B1B"/>
<path d="M11.5066 23.6785C11.5066 23.7464 11.502 23.7958 11.4928 23.8267C11.4032 24.6478 11.0374 25.2267 10.3953 25.5632C9.91057 25.8164 9.2283 25.9429 8.34844 25.9429C8.21261 25.9429 7.64302 25.9182 6.63968 25.8688C6.4668 25.8596 6.16116 25.8318 5.72278 25.7855C5.34923 25.7453 5.06675 25.7253 4.87535 25.7253C4.48636 25.7253 4.18536 25.8009 3.97234 25.9522L4.00476 24.7667C4.10355 24.7173 4.22549 24.6926 4.37059 24.6926C4.58978 24.6926 4.83367 24.7559 5.10226 24.8825C4.6824 23.6599 4.46166 21.8678 4.44005 19.5061C4.43696 19.2931 4.34744 19.1526 4.17147 19.0847C3.99241 19.0569 3.78402 19.0122 3.54631 18.9504C3.47839 18.9134 3.44443 18.7822 3.44443 18.5568C3.44443 18.4179 3.45369 18.3314 3.47222 18.2975C3.74389 18.3901 4.38757 18.4889 5.40326 18.5939C6.43438 18.7019 7.28645 18.7559 7.95946 18.7559C8.72508 18.7559 9.65433 18.7328 10.7472 18.6865C10.5774 19.0045 10.4323 19.3487 10.3119 19.7191C10.2255 20.0309 10.139 20.3412 10.0526 20.6499C10.0094 20.653 9.90594 20.6623 9.74231 20.6777C9.61265 20.6931 9.51077 20.7009 9.43668 20.7009C9.37494 20.7009 9.34098 20.6808 9.3348 20.6407C9.31011 20.2023 9.2391 19.8936 9.12179 19.7145C8.9489 19.4428 8.46576 19.307 7.67235 19.307C7.6106 19.307 7.30034 19.3193 6.74156 19.344C6.55941 19.7701 6.46834 20.2887 6.46834 20.9C6.46834 21.0111 6.47297 21.1639 6.48223 21.3584C6.49149 21.5529 6.49613 21.6903 6.49613 21.7706C6.74001 21.7521 6.94994 21.7335 7.12591 21.715C7.55195 21.6656 7.77268 21.6178 7.78812 21.5715C7.81282 21.4912 7.82516 21.4094 7.82516 21.326C7.82516 21.1871 7.77577 21.059 7.67698 20.9417C7.59362 20.8583 7.51027 20.775 7.42692 20.6916C7.56893 20.6144 7.70322 20.5481 7.82979 20.4925C8.13543 20.3628 8.38395 20.2949 8.57535 20.2887C8.6371 20.4153 8.66797 20.5897 8.66797 20.812C8.66797 20.8799 8.66334 20.9818 8.65408 21.1176C8.64482 21.2535 8.64018 21.3538 8.64018 21.4186C8.64018 21.644 8.70347 22.0237 8.83005 22.5578C8.8424 22.6134 8.8424 22.6489 8.83005 22.6643C8.82079 22.6736 8.80226 22.6767 8.77448 22.6736C8.51515 22.6365 8.0706 22.6057 7.44081 22.581C7.15061 22.5686 6.86196 22.5578 6.57485 22.5486C6.63351 23.6167 6.8635 24.3499 7.26484 24.7482C7.61369 25.097 8.19871 25.2715 9.01991 25.2715C9.27923 25.2715 9.52312 25.2205 9.75158 25.1186C9.95224 25.0291 10.0526 24.9504 10.0526 24.8825C10.0526 24.8485 10.0186 24.8315 9.9507 24.8315C9.89513 24.8315 9.82104 24.8362 9.72842 24.8454C9.63581 24.8516 9.55708 24.8547 9.49225 24.8547C8.89025 24.8547 8.49509 24.6232 8.30677 24.1601C8.27589 24.0829 8.26046 24.0042 8.26046 23.9239C8.26046 23.6831 8.40864 23.4685 8.70502 23.2802C9.01991 23.0796 9.46292 22.936 10.0341 22.8496C10.2038 22.8249 10.352 22.8125 10.4786 22.8125C11.164 22.8125 11.5066 23.1012 11.5066 23.6785ZM18.7816 20.937L18.6798 21.979C18.584 22.0098 18.4976 22.0253 18.4204 22.0253C18.2321 22.0253 18.0175 21.9589 17.7767 21.8262C18.2892 22.7338 18.5455 23.7171 18.5455 24.776C18.5455 25.0353 18.5269 25.2884 18.4899 25.5354C18.3479 26.4585 18.0515 27.1006 17.6008 27.4618C17.076 27.8848 16.1807 28.0962 14.9149 28.0962C13.822 28.0962 12.99 27.9048 12.4189 27.522C12.0793 27.2905 11.8586 27.0173 11.7567 26.7024C11.6795 26.4647 11.6409 26.2686 11.6409 26.1143C11.6409 25.645 12.0299 25.3348 12.8079 25.1835C13.1351 25.1217 13.4547 25.0909 13.7665 25.0909C14.211 25.0909 14.5707 25.1541 14.8455 25.2807C15.111 25.4073 15.2437 25.5709 15.2437 25.7716C15.2437 26.2285 14.9381 26.5604 14.3268 26.7672C13.9193 26.9061 13.6785 26.9926 13.6044 27.0265C13.4593 27.0945 13.3868 27.167 13.3868 27.2442C13.3868 27.3584 13.6306 27.4155 14.1184 27.4155C14.7266 27.4155 15.2468 27.3075 15.679 27.0914C16.0402 26.9123 16.3026 26.477 16.4662 25.7855C16.5743 25.3224 16.6283 24.8223 16.6283 24.2851C16.6283 24.1585 16.6221 24.0628 16.6098 23.998C16.5079 24.2388 16.2578 24.4317 15.8596 24.5768C15.5046 24.7034 15.1125 24.7667 14.6834 24.7667C14.0351 24.7667 13.5226 24.5367 13.1459 24.0767C12.8681 23.7402 12.689 23.3188 12.6088 22.8125C12.5378 22.3772 12.5023 22.0546 12.5023 21.8447C12.5023 21.4433 12.6011 21.1485 12.7986 20.9602C13.024 20.741 13.4068 20.6314 13.9471 20.6314C14.2002 20.6314 14.5198 20.6607 14.9057 20.7194C15.5663 20.8151 16.0587 21.005 16.3829 21.289C16.4137 21.3137 16.4292 21.306 16.4292 21.2658C16.4292 21.1732 16.369 20.8984 16.2486 20.4415C16.937 20.8583 17.5946 21.0667 18.2213 21.0667C18.4714 21.0667 18.6581 21.0235 18.7816 20.937ZM16.8552 23.0626C16.8552 22.8619 16.6376 22.6581 16.2023 22.4513C15.8133 22.2692 15.415 22.1781 15.0075 22.1781C14.6124 22.1781 14.2851 22.2151 14.0258 22.2892C13.7325 22.3726 13.5859 22.4899 13.5859 22.6412C13.5859 22.8233 13.802 23.0039 14.2342 23.183C14.6695 23.3589 15.1264 23.4469 15.6049 23.4469C15.9815 23.4469 16.2841 23.4114 16.5125 23.3404C16.741 23.2663 16.8552 23.1737 16.8552 23.0626ZM25.9131 20.937L25.8112 21.979C25.7155 22.0098 25.629 22.0253 25.5519 22.0253C25.3635 22.0253 25.149 21.9589 24.9082 21.8262C25.4206 22.7338 25.6769 23.7171 25.6769 24.776C25.6769 25.0353 25.6584 25.2884 25.6213 25.5354C25.4793 26.4585 25.1829 27.1006 24.7322 27.4618C24.2074 27.8848 23.3121 28.0962 22.0463 28.0962C20.9535 28.0962 20.1215 27.9048 19.5503 27.522C19.2107 27.2905 18.99 27.0173 18.8881 26.7024C18.811 26.4647 18.7724 26.2686 18.7724 26.1143C18.7724 25.645 19.1614 25.3348 19.9393 25.1835C20.2666 25.1217 20.5861 25.0909 20.8979 25.0909C21.3425 25.0909 21.7021 25.1541 21.9769 25.2807C22.2424 25.4073 22.3751 25.5709 22.3751 25.7716C22.3751 26.2285 22.0695 26.5604 21.4582 26.7672C21.0507 26.9061 20.8099 26.9926 20.7358 27.0265C20.5907 27.0945 20.5182 27.167 20.5182 27.2442C20.5182 27.3584 20.7621 27.4155 21.2498 27.4155C21.858 27.4155 22.3782 27.3075 22.8104 27.0914C23.1716 26.9123 23.434 26.477 23.5977 25.7855C23.7057 25.3224 23.7597 24.8223 23.7597 24.2851C23.7597 24.1585 23.7536 24.0628 23.7412 23.998C23.6393 24.2388 23.3893 24.4317 22.991 24.5768C22.636 24.7034 22.2439 24.7667 21.8148 24.7667C21.1665 24.7667 20.654 24.5367 20.2774 24.0767C19.9995 23.7402 19.8205 23.3188 19.7402 22.8125C19.6692 22.3772 19.6337 22.0546 19.6337 21.8447C19.6337 21.4433 19.7325 21.1485 19.9301 20.9602C20.1554 20.741 20.5382 20.6314 21.0785 20.6314C21.3317 20.6314 21.6512 20.6607 22.0371 20.7194C22.6977 20.8151 23.1901 21.005 23.5143 21.289C23.5452 21.3137 23.5606 21.306 23.5606 21.2658C23.5606 21.1732 23.5004 20.8984 23.38 20.4415C24.0685 20.8583 24.726 21.0667 25.3527 21.0667C25.6028 21.0667 25.7896 21.0235 25.9131 20.937ZM23.9866 23.0626C23.9866 22.8619 23.769 22.6581 23.3337 22.4513C22.9447 22.2692 22.5465 22.1781 22.139 22.1781C21.7438 22.1781 21.4166 22.2151 21.1572 22.2892C20.8639 22.3726 20.7173 22.4899 20.7173 22.6412C20.7173 22.8233 20.9334 23.0039 21.3656 23.183C21.8009 23.3589 22.2578 23.4469 22.7363 23.4469C23.113 23.4469 23.4155 23.4114 23.644 23.3404C23.8724 23.2663 23.9866 23.1737 23.9866 23.0626ZM34.3272 21.3909L34.2763 21.9327C33.8626 21.7968 33.6202 21.7304 33.5492 21.7335C33.435 21.7397 33.3424 21.9327 33.2714 22.3124C33.2189 22.5933 33.1556 23.1336 33.0815 23.9332C33.0043 24.776 32.9194 25.3517 32.8268 25.6604C32.6323 26.2995 32.3638 26.7518 32.0211 27.0173C31.5765 27.3569 30.8834 27.5267 29.9418 27.5267C28.5001 27.5267 27.4613 27.3121 26.8253 26.883C26.6247 26.7471 26.4533 26.5372 26.3113 26.2532C26.1724 25.9784 26.1029 25.7206 26.1029 25.4798C26.1029 25.165 26.265 24.9242 26.5892 24.7574C26.8948 24.6 27.3146 24.5213 27.8487 24.5213C28.3982 24.5213 28.8598 24.6232 29.2333 24.8269C29.5729 25.0121 29.7427 25.2205 29.7427 25.4521C29.7427 25.9213 29.4139 26.2501 28.7564 26.4384C28.7008 26.4539 28.4662 26.5017 28.0525 26.582C27.8271 26.6283 27.7144 26.6808 27.7144 26.7394C27.7144 26.8722 28.0556 26.9385 28.7378 26.9385C29.2503 26.9385 29.6146 26.8814 29.8307 26.7672C30.1919 26.5758 30.4728 26.2702 30.6735 25.8503C30.8186 25.5509 30.8912 25.2977 30.8912 25.0909C30.8819 25.0168 30.3555 24.5768 29.3121 23.7711C28.2439 22.9437 27.5385 22.4405 27.1958 22.2614C27.0785 22.2614 26.7296 22.4173 26.1492 22.7292C26.0998 22.7569 26.0751 22.7446 26.0751 22.6921C26.0751 22.5624 26.0767 22.3942 26.0798 22.1874C26.0829 21.9805 26.0844 21.8447 26.0844 21.7798V21.5159C27.6187 21.2658 28.795 20.9247 29.6131 20.4925C29.6902 20.6314 29.8106 20.8398 29.9743 21.1176C29.8199 21.1578 29.5606 21.2041 29.1963 21.2566C29.1963 21.59 29.4973 22.0484 30.0993 22.6319C30.6087 23.1228 31.0409 23.4577 31.3959 23.6368C31.5657 23.3836 31.7849 22.9638 32.0535 22.3772C32.3159 21.803 32.4471 21.4619 32.4471 21.3538C31.7988 21.3569 31.328 21.3507 31.0347 21.3353C31.081 21.1408 31.1659 20.8274 31.2894 20.3952C32.1909 20.4292 33.2035 20.7611 34.3272 21.3909ZM36.9946 19.0847C36.9946 19.2977 36.9344 19.5385 36.814 19.8071C36.6936 20.0757 36.5747 20.247 36.4574 20.3211C36.2845 20.3767 36.1579 20.4045 36.0777 20.4045C36.0252 20.4045 35.9989 20.386 35.9989 20.3489C35.9989 20.3366 36.019 20.298 36.0591 20.2332C36.1579 20.0603 36.2073 19.9213 36.2073 19.8164C36.2073 19.6775 36.1039 19.608 35.8971 19.608C35.826 19.608 35.7026 19.6203 35.5266 19.645C35.4371 19.6574 35.3738 19.6636 35.3367 19.6636C35.0898 19.6636 34.8798 19.5848 34.7069 19.4274C34.5371 19.2669 34.4522 19.0647 34.4522 18.8208C34.4522 18.6139 34.5773 18.4488 34.8273 18.3253C35.0589 18.208 35.3491 18.1493 35.6979 18.1493C36.1054 18.1493 36.4265 18.2373 36.6611 18.4133C36.8834 18.583 36.9946 18.8069 36.9946 19.0847ZM44.2417 24.0489C44.2417 24.1755 44.2325 24.3005 44.214 24.424C44.1244 25.0137 43.6876 25.4721 42.9034 25.7994C42.178 26.105 41.2626 26.2578 40.1574 26.2578C39.401 26.2578 38.7836 26.1529 38.3051 25.9429C37.8945 25.7639 37.6444 25.5431 37.5549 25.2807C37.4931 25.0924 37.4623 24.9334 37.4623 24.8038C37.4623 24.3561 37.8883 24.0752 38.7404 23.9609C39.0275 23.9239 39.293 23.9054 39.5369 23.9054C39.9814 23.9054 40.3334 23.9609 40.5927 24.0721C40.852 24.1832 40.9817 24.336 40.9817 24.5305C40.9817 24.7343 40.8875 24.9149 40.6992 25.0723C40.4646 25.2699 40.1095 25.4027 39.6341 25.4706C39.3501 25.5107 39.2081 25.5709 39.2081 25.6512C39.2081 25.7376 39.4581 25.7809 39.9583 25.7809C40.1528 25.7809 40.3256 25.7716 40.4769 25.7531C40.9122 25.7006 41.2317 25.6249 41.4355 25.5262C41.7442 25.3811 41.8924 25.1634 41.88 24.8732C41.8399 23.9316 41.3753 23.4608 40.4862 23.4608C40.3966 23.4608 40.2145 23.4716 39.9397 23.4932C39.6681 23.5148 39.4751 23.5257 39.3609 23.5257C38.4286 23.5257 37.9624 23.2061 37.9624 22.5671C37.9624 22.4158 37.9763 22.28 38.0041 22.1596C38.1059 21.6687 38.3853 21.2766 38.8422 20.9833C39.3671 20.6468 40.0771 20.4786 40.9724 20.4786C41.8399 20.4786 42.4805 20.5573 42.8942 20.7148C43.2554 20.8506 43.4962 21.0698 43.6166 21.3723C43.6938 21.5607 43.7324 21.7088 43.7324 21.8169C43.7324 22.1657 43.3619 22.3649 42.621 22.4143C42.482 22.4204 42.3308 22.4235 42.1672 22.4235C41.1854 22.4235 40.6946 22.2537 40.6946 21.9141C40.6946 21.6178 40.8659 21.3955 41.2086 21.2473C41.2518 21.2288 41.508 21.1624 41.9773 21.0482C42.0329 21.0358 42.0606 21.0142 42.0606 20.9833C42.0606 20.8753 41.8214 20.8213 41.3429 20.8213C40.4321 20.8213 39.9768 21.0929 39.9768 21.6363C39.9768 21.7629 40.0015 21.8987 40.0509 22.0438C40.1651 22.371 40.3442 22.5995 40.588 22.7292C40.7887 22.8372 41.065 22.8912 41.417 22.8912C41.5374 22.8912 41.7319 22.8835 42.0004 22.8681C42.269 22.8496 42.4697 22.8403 42.6024 22.8403C43.1211 22.8403 43.5101 22.919 43.7694 23.0765C44.0843 23.2648 44.2417 23.5889 44.2417 24.0489ZM11.4094 33.6036C11.4094 33.9494 11.3338 34.3137 11.1825 34.6965C10.6731 35.9715 9.83802 36.609 8.67723 36.609C8.2018 36.609 7.76033 36.501 7.35282 36.2849C7.12437 36.1614 6.84807 35.9607 6.52391 35.6828C6.72767 36.6553 7.10122 37.6725 7.64456 38.7345C6.37881 38.9877 5.08528 39.2594 3.76396 39.5496C3.73308 39.4384 3.71765 39.318 3.71765 39.1884C3.71765 39.0278 3.74698 38.9368 3.80563 38.9151C3.91677 38.8843 4.08039 38.8333 4.2965 38.7623C4.52804 38.6759 4.64381 38.5354 4.64381 38.3409C4.64381 38.3131 4.64226 38.2838 4.63918 38.2529C4.46012 36.8946 4.37059 35.8032 4.37059 34.979C4.37059 34.1115 4.45394 33.2702 4.62065 32.4552C4.41998 32.5262 4.23321 32.5617 4.06033 32.5617C3.83805 32.5617 3.65127 32.5138 3.5 32.4181L3.58335 31.2512C4.44777 31.6865 5.31836 31.9041 6.19512 31.9041C6.47297 31.9041 6.92062 31.8732 7.53805 31.8115C8.15858 31.7498 8.62784 31.7189 8.94582 31.7189C9.7948 31.7189 10.4308 31.9072 10.8537 32.2838C11.2242 32.6111 11.4094 33.051 11.4094 33.6036ZM10.3489 33.8305C10.3489 33.599 10.1622 33.4153 9.78862 33.2795C9.42742 33.1467 8.95045 33.0803 8.35771 33.0803C7.70631 33.0803 7.1182 33.2038 6.59337 33.4508C6.08707 33.6854 5.83392 33.9355 5.83392 34.201C5.83392 34.3677 6.05774 34.5143 6.50539 34.6409C6.91598 34.7582 7.34356 34.8169 7.78812 34.8169C8.38086 34.8169 8.9489 34.7181 9.49225 34.5205C10.0634 34.3137 10.3489 34.0837 10.3489 33.8305ZM14.9751 39.0309C14.5645 38.8519 14.157 38.7623 13.7526 38.7623C13.2123 38.7623 12.6427 38.9074 12.0438 39.1976C12.0006 39.2192 11.9728 39.227 11.9605 39.2208C11.945 39.2115 11.9435 39.1822 11.9558 39.1328C12.3633 37.4904 12.5671 36.1444 12.5671 35.0947C12.5671 34.1778 12.4498 33.298 12.2152 32.4552C12.1781 32.3286 12.0917 32.2391 11.9558 32.1866C11.8509 32.1495 11.6718 32.1218 11.4187 32.1032C11.3013 31.9983 11.2535 31.7467 11.2751 31.3484C11.2936 31.3546 11.3477 31.3577 11.4372 31.3577C11.8941 31.3577 12.9021 31.2712 14.4611 31.0984C14.671 31.8331 14.776 32.6497 14.776 33.5481C14.776 35.2028 14.4657 36.6445 13.8452 37.8732C14.0675 37.7652 14.2913 37.7111 14.5167 37.7111C14.6957 37.7111 14.8485 37.7389 14.9751 37.7945V39.0309ZM23.3013 38.7531C23.1562 38.6512 22.92 38.6002 22.5928 38.6002C22.1976 38.6002 21.7515 38.6651 21.2545 38.7947C20.7574 38.9244 20.3684 39.0757 20.0875 39.2486C20.1956 38.7299 20.2496 38.3841 20.2496 38.2113C20.2496 38.1588 20.2403 38.1341 20.2218 38.1372C20.2095 38.1403 20.1894 38.1526 20.1616 38.1742C19.643 38.6002 19.024 38.8596 18.3047 38.9522C17.962 38.9954 17.6718 39.017 17.4341 39.017C16.7302 39.017 16.2254 38.8673 15.9198 38.5678C15.645 38.2992 15.5077 37.8871 15.5077 37.3314C15.5077 37.0412 15.5354 36.7217 15.591 36.3728C15.7052 35.6813 15.9522 35.1102 16.3319 34.6594C16.7888 34.1254 17.3739 33.8583 18.087 33.8583C18.8588 33.8583 19.6105 34.2133 20.3422 34.9234C20.3422 34.769 20.299 34.5514 20.2125 34.2705C20.1168 33.971 20.0088 33.7271 19.8884 33.5388C21.4073 33.3072 22.4569 33.085 23.0373 32.872C23.0929 33.0664 23.1207 33.2625 23.1207 33.4601C23.1207 33.6206 23.1022 33.7194 23.0651 33.7564C22.6113 33.9108 22.3844 34.0497 22.3844 34.1732V34.1825C22.3844 34.2843 22.389 34.4449 22.3983 34.6641C22.4075 34.8833 22.4122 35.0515 22.4122 35.1688C22.4122 36.1598 22.2856 36.9779 22.0324 37.6232C22.2362 37.4966 22.4785 37.4333 22.7595 37.4333C22.9077 37.4333 23.045 37.4503 23.1716 37.4842L23.3013 38.7531ZM20.6108 36.1645C20.6108 36.0348 20.4811 35.9267 20.2218 35.8403C19.947 35.7477 19.5889 35.7014 19.1475 35.7014C18.5702 35.7014 18.0145 35.8094 17.4804 36.0255C16.9617 36.2385 16.7024 36.4531 16.7024 36.6692C16.7024 36.8421 16.8861 36.981 17.2535 37.086C17.5838 37.1786 17.9759 37.2249 18.4297 37.2249C18.9453 37.2249 19.4438 37.1014 19.9254 36.8544C20.3823 36.6167 20.6108 36.3867 20.6108 36.1645ZM30.2151 35.4235C30.2151 36.1336 29.6779 36.4886 28.6035 36.4886C28.0664 36.4886 27.6218 36.3929 27.2699 36.2015C26.9395 36.0224 26.7744 35.811 26.7744 35.5671C26.7744 35.1812 26.9766 34.8771 27.381 34.6548C27.736 34.4603 28.1621 34.3631 28.6591 34.3631C28.69 34.3631 28.7054 34.3569 28.7054 34.3445C28.7054 34.2982 28.5912 34.238 28.3627 34.1639C28.0972 34.0744 27.824 34.0297 27.5431 34.0297C26.2959 34.0297 25.6723 34.59 25.6723 35.7106C25.6723 35.831 25.6815 35.973 25.7 36.1367C25.7927 36.9177 25.9594 37.4549 26.2002 37.7482C26.3792 37.9643 26.637 38.0723 26.9735 38.0723C27.4952 38.0723 27.9846 37.9689 28.4415 37.7621C28.849 37.5799 29.1747 37.3453 29.4186 37.0582C29.434 37.0551 29.4464 37.0644 29.4556 37.086C29.1685 38.2992 28.4538 38.9815 27.3116 39.1328C27.0244 39.1698 26.7312 39.1884 26.4317 39.1884C24.4281 39.1884 23.4263 38.256 23.4263 36.3914C23.4263 35.4837 23.6733 34.8123 24.1672 34.377C24.6334 33.9664 25.3882 33.7086 26.4317 33.6036C26.6849 33.5789 26.9318 33.5666 27.1726 33.5666C28.0432 33.5666 28.7656 33.7209 29.3398 34.0297C29.8492 34.3044 30.1317 34.6301 30.1873 35.0068C30.2058 35.1364 30.2151 35.2753 30.2151 35.4235ZM36.9714 35.8634C36.9714 36.0209 36.9652 36.2061 36.9529 36.4191C36.9529 36.4562 36.9374 36.4701 36.9066 36.4608C36.3817 36.3435 35.522 36.1876 34.3272 35.9931C33.2652 35.8233 32.7095 35.7384 32.6601 35.7384C32.5891 35.7384 32.5536 36.0286 32.5536 36.609C32.5536 37.3407 32.7142 37.8871 33.0352 38.2483C33.2791 38.5231 33.5925 38.6697 33.9753 38.6882C34.1914 38.6975 34.3905 38.6651 34.5726 38.591C34.6437 38.5632 34.6792 38.5354 34.6792 38.5076C34.6792 38.4891 34.6606 38.4737 34.6236 38.4613C34.2192 38.3872 33.8888 38.2375 33.6326 38.0121C33.3764 37.7837 33.2482 37.512 33.2482 37.1971C33.2482 36.9995 33.3594 36.8405 33.5817 36.7201C33.807 36.5967 34.1127 36.5349 34.4986 36.5349C34.7641 36.5349 35.045 36.5627 35.3414 36.6183C36.1379 36.7726 36.5361 37.0922 36.5361 37.5768C36.5361 37.7127 36.4991 37.8516 36.425 37.9936C36.2181 38.3826 35.9619 38.6604 35.6563 38.8272C35.2117 39.068 34.5356 39.1884 33.628 39.1884C32.5845 39.1884 31.7509 38.8025 31.1273 38.0307C30.5932 37.3731 30.3262 36.6306 30.3262 35.8032C30.3262 34.2751 31.575 33.511 34.0725 33.511C35.5204 33.511 36.4111 33.8737 36.7445 34.5992C36.8958 34.9296 36.9714 35.351 36.9714 35.8634ZM35.1978 34.7984C35.1978 34.6255 35.0851 34.485 34.8598 34.377C34.6344 34.2658 34.3365 34.2103 33.966 34.2103C33.5338 34.2103 33.1587 34.2504 32.8407 34.3307C32.4672 34.4233 32.2804 34.5483 32.2804 34.7057C32.2804 35.104 32.9179 35.3031 34.1929 35.3031C34.8628 35.3031 35.1978 35.1349 35.1978 34.7984Z" fill="#FBFBFB"/>
<path d="M49 42.7252C49 49.0027 43.9111 54.0917 37.6336 54.0917H11.3664C5.08892 54.0917 0 49.0027 0 42.7252H49Z" fill="#FBFBFB"/>
<ellipse cx="43.0726" cy="49.0974" rx="1.18548" ry="0.516656" transform="rotate(180 43.0726 49.0974)" fill="#1F1B1B"/>
<ellipse cx="30.4274" cy="47.7196" rx="1.18548" ry="0.516656" transform="rotate(180 30.4274 47.7196)" fill="#1F1B1B"/>
<ellipse cx="36.75" cy="50.4751" rx="1.18548" ry="0.516656" transform="rotate(180 36.75 50.4751)" fill="#1F1B1B"/>
<ellipse cx="32.7984" cy="52.8861" rx="1.18548" ry="0.516656" transform="rotate(180 32.7984 52.8861)" fill="#1F1B1B"/>
<ellipse cx="27.2661" cy="50.4751" rx="1.18548" ry="0.516656" transform="rotate(180 27.2661 50.4751)" fill="#1F1B1B"/>
<ellipse cx="21.7339" cy="48.064" rx="1.18548" ry="0.516656" transform="rotate(180 21.7339 48.064)" fill="#1F1B1B"/>
<ellipse cx="25.6855" cy="45.3085" rx="1.18548" ry="0.516656" transform="rotate(180 25.6855 45.3085)" fill="#1F1B1B"/>
<ellipse cx="12.25" cy="45.9974" rx="1.18548" ry="0.516656" transform="rotate(180 12.25 45.9974)" fill="#1F1B1B"/>
<ellipse cx="3.55646" cy="45.9974" rx="1.18548" ry="0.516656" transform="rotate(180 3.55646 45.9974)" fill="#1F1B1B"/>
<ellipse cx="7.50806" cy="48.4085" rx="1.18548" ry="0.516656" transform="rotate(180 7.50806 48.4085)" fill="#1F1B1B"/>
<ellipse cx="11.4597" cy="50.8195" rx="1.18548" ry="0.516656" transform="rotate(180 11.4597 50.8195)" fill="#1F1B1B"/>
<ellipse cx="20.9435" cy="53.2306" rx="1.18548" ry="0.516656" transform="rotate(180 20.9435 53.2306)" fill="#1F1B1B"/>
<ellipse cx="20.9435" cy="50.8195" rx="1.18548" ry="0.516656" transform="rotate(180 20.9435 50.8195)" fill="#1F1B1B"/>
<ellipse cx="14.621" cy="48.4085" rx="1.18548" ry="0.516656" transform="rotate(180 14.621 48.4085)" fill="#1F1B1B"/>
<ellipse cx="39.121" cy="46.3418" rx="1.18548" ry="0.516656" transform="rotate(180 39.121 46.3418)" fill="#1F1B1B"/>
<ellipse cx="47.8145" cy="44.6196" rx="1.18548" ry="0.516656" transform="rotate(180 47.8145 44.6196)" fill="#1F1B1B"/>
<ellipse cx="34.379" cy="44.2752" rx="1.18548" ry="0.516656" transform="rotate(180 34.379 44.2752)" fill="#1F1B1B"/>
<ellipse cx="20.9435" cy="43.9307" rx="1.18548" ry="0.516656" transform="rotate(180 20.9435 43.9307)" fill="#1F1B1B"/>
<ellipse cx="7.50806" cy="43.5864" rx="1.18548" ry="0.516656" transform="rotate(180 7.50806 43.5864)" fill="#1F1B1B"/>
</svg>
